<svg id="Capa_1" data-name="Capa 1" xmlns="http://www.w3.org/2000/svg" viewBox="0 0 150 150"><defs><style>.cls-1,.cls-2{fill:#f6f6f6;}.cls-2{font-size:27.31px;font-family:Poppins-Bold, Poppins;font-weight:700;}</style></defs><title>logo</title><path class="cls-1" d="M23.85,43.19c.49-12.74,8.93-22.62,20.57-24.25a22.36,22.36,0,0,1,21,7.86c8.19,9.37,16.2,18.92,24.41,28.28,4.61,5.25,10.49,7,17.07,5.09s10.8-6.55,12.13-13.53c2.12-11.08-6.15-21.17-17-20.91a16.18,16.18,0,0,0-12.16,5.72c-1,1.12-1.93,2.26-2.91,3.37a3.35,3.35,0,0,1-4.94.52,3.59,3.59,0,0,1-.16-5.18A50.15,50.15,0,0,1,87,24.5C94,18.54,102,17,110.58,20.25s13.72,9.8,15.23,19.08c2.24,13.73-6.87,26.47-20.23,28.33-8.23,1.14-15.34-1.51-20.93-7.92-8.21-9.41-16.24-19-24.49-28.36a15.6,15.6,0,0,0-17-5C36.58,28.33,32.41,33,31.08,39.89c-2.13,11.1,6.07,21.17,17,21a16.13,16.13,0,0,0,12.18-5.68c1-1.13,2-2.31,3-3.45a3.34,3.34,0,0,1,4.94-.44,3.61,3.61,0,0,1,.24,5c-3,3.68-6.14,7.19-10.52,9.28-14.68,7-31.72-2.61-33.8-19.15C23.91,45.17,23.89,43.88,23.85,43.19Z"/><rect class="cls-1" x="46.01" y="35.5" width="4.04" height="15.14" rx="0.9"/><rect class="cls-1" x="45.94" y="35.73" width="4.17" height="14.67" rx="0.9" transform="translate(4.96 91.1) rotate(-90)"/><ellipse class="cls-1" cx="102.01" cy="36.96" rx="3.12" ry="3.22"/><ellipse class="cls-1" cx="96.57" cy="42.93" rx="3.12" ry="3.22"/><ellipse class="cls-1" cx="102.01" cy="48.88" rx="3.12" ry="3.22"/><ellipse class="cls-1" cx="107.76" cy="42.93" rx="3.12" ry="3.22"/><text class="cls-2" transform="translate(36.3 94.57) scale(0.97 1)">GOTO<tspan x="-30.94" y="32.77">GAMEJAM</tspan></text></svg>